<?xml version="1.0" encoding="utf-8"?>
<!-- Generator: Adobe Illustrator 25.0.0, SVG Export Plug-In . SVG Version: 6.00 Build 0)  -->
<svg version="1.1"
	 id="svg4056" inkscape:version="0.48.3.1 r9886" xmlns:cc="http://creativecommons.org/ns#" xmlns:dc="http://purl.org/dc/elements/1.1/" xmlns:inkscape="http://www.inkscape.org/namespaces/inkscape" xmlns:rdf="http://www.w3.org/1999/02/22-rdf-syntax-ns#" xmlns:sodipodi="http://sodipodi.sourceforge.net/DTD/sodipodi-0.dtd" xmlns:svg="http://www.w3.org/2000/svg"
	 xmlns="http://www.w3.org/2000/svg" xmlns:xlink="http://www.w3.org/1999/xlink" x="0px" y="0px" viewBox="0 0 48 48"
	 style="enable-background:new 0 0 48 48;" xml:space="preserve">
<style type="text/css">
	.st0{fill:#628698;}
</style>
<sodipodi:namedview  bordercolor="#666666" borderopacity="1" gridtolerance="10" guidetolerance="10" id="namedview4058" inkscape:current-layer="g4064" inkscape:cx="12.57971" inkscape:cy="24" inkscape:pageopacity="0" inkscape:pageshadow="2" inkscape:window-height="1020" inkscape:window-maximized="1" inkscape:window-width="1920" inkscape:window-x="-2" inkscape:window-y="-3" inkscape:zoom="17.25" objecttolerance="10" pagecolor="#ffffff" showgrid="false">
	</sodipodi:namedview>
<g id="g4064" transform="matrix(1.25,0,0,-1.25,0,48.000001)" inkscape:groupmode="layer" inkscape:label="mobile_icon">
	<path id="path5742" class="st0" d="M23.4,26.2c0-2.3-1.9-4.2-4.2-4.2S15,23.9,15,26.2s1.9,4.2,4.2,4.2S23.4,28.5,23.4,26.2z
		 M19.2,37.9c-7.2,0-13-5-13-11.1c0-1.9,0.4-3.5,1-5.2C7.9,20.1,18.3,1.2,18.3,1.2c0.5-0.9,1.3-0.9,1.7,0c0,0,10.3,18.9,11,20.5
		c0.7,1.7,1.1,3.4,1.1,5.2C32.2,32.9,26.4,37.9,19.2,37.9z"/>
</g>
</svg>
