<?xml version="1.0" encoding="utf-8"?>
<!-- Generator: Adobe Illustrator 25.0.0, SVG Export Plug-In . SVG Version: 6.00 Build 0)  -->
<svg version="1.1"
	 id="svg4707" inkscape:version="0.48.3.1 r9886" xmlns:cc="http://creativecommons.org/ns#" xmlns:dc="http://purl.org/dc/elements/1.1/" xmlns:inkscape="http://www.inkscape.org/namespaces/inkscape" xmlns:rdf="http://www.w3.org/1999/02/22-rdf-syntax-ns#" xmlns:sodipodi="http://sodipodi.sourceforge.net/DTD/sodipodi-0.dtd" xmlns:svg="http://www.w3.org/2000/svg"
	 xmlns="http://www.w3.org/2000/svg" xmlns:xlink="http://www.w3.org/1999/xlink" x="0px" y="0px" viewBox="0 0 48 48"
	 style="enable-background:new 0 0 48 48;" xml:space="preserve">
<style type="text/css">
	.st0{fill:#628698;}
	.st1{fill:#FFFFFF;}
</style>
<sodipodi:namedview  bordercolor="#666666" borderopacity="1.0" id="base" inkscape:current-layer="layer1" inkscape:cx="17.252374" inkscape:cy="21.324611" inkscape:document-units="px" inkscape:grid-bbox="true" inkscape:pageopacity="0.0" inkscape:pageshadow="2" inkscape:window-height="1020" inkscape:window-maximized="1" inkscape:window-width="1920" inkscape:window-x="-2" inkscape:window-y="-3" inkscape:zoom="3.234375" pagecolor="#ffffff" showgrid="true">
	</sodipodi:namedview>
<g id="layer1" transform="translate(0,-16)" inkscape:groupmode="layer" inkscape:label="Layer 1">
	<g id="g3148" transform="matrix(1.4528376,0,0,1.4528376,-1026.7786,-283.20833)">
		<path id="rect5933" class="st0" d="M710.3,211.8h26c1.3,0,2.3,1,2.3,2.3v16.8c0,1.3-1,2.3-2.3,2.3h-26c-1.3,0-2.3-1-2.3-2.3v-16.8
			C708,212.8,709,211.8,710.3,211.8z"/>
		<path id="rect5935" inkscape:connector-curvature="0" class="st1" d="M708,211.8v1.2l9.5,9.5l-9.5,9.5v1.2h1.6l9.3-9.4l2.9,2.9
			c0.8,0.8,2.2,0.8,3,0l2.9-2.9l9.3,9.4h1.6V232l-9.5-9.6l9.5-9.5v-1.1h-1.8l-13.4,13.4c0,0-0.1,0-0.2,0l-13.4-13.4H708z"/>
	</g>
</g>
</svg>
