<?xml version="1.0" encoding="utf-8"?>
<!-- Generator: Adobe Illustrator 25.0.0, SVG Export Plug-In . SVG Version: 6.00 Build 0)  -->
<svg version="1.1"
	 id="svg4056" inkscape:version="0.48.3.1 r9886" xmlns:cc="http://creativecommons.org/ns#" xmlns:dc="http://purl.org/dc/elements/1.1/" xmlns:inkscape="http://www.inkscape.org/namespaces/inkscape" xmlns:rdf="http://www.w3.org/1999/02/22-rdf-syntax-ns#" xmlns:sodipodi="http://sodipodi.sourceforge.net/DTD/sodipodi-0.dtd" xmlns:svg="http://www.w3.org/2000/svg"
	 xmlns="http://www.w3.org/2000/svg" xmlns:xlink="http://www.w3.org/1999/xlink" x="0px" y="0px" viewBox="0 0 48 48"
	 style="enable-background:new 0 0 48 48;" xml:space="preserve">
<style type="text/css">
	.st0{fill:#628698;}
	.st1{fill:#FFFFFF;}
</style>
<sodipodi:namedview  bordercolor="#666666" borderopacity="1" gridtolerance="10" guidetolerance="10" id="namedview4058" inkscape:current-layer="g4064" inkscape:cx="-16.892372" inkscape:cy="50.622898" inkscape:pageopacity="0" inkscape:pageshadow="2" inkscape:window-height="1020" inkscape:window-maximized="1" inkscape:window-width="1920" inkscape:window-x="-2" inkscape:window-y="-3" inkscape:zoom="5.1015625" objecttolerance="10" pagecolor="#ffffff" showgrid="false">
	</sodipodi:namedview>
<g id="g4064" transform="matrix(1.25,0,0,-1.25,0,48.000001)" inkscape:groupmode="layer" inkscape:label="mobile_icon">
	<g id="g3128" transform="matrix(1.1622701,0,0,-1.1622701,-716.52644,238.70549)">
		<path id="rect5764" inkscape:connector-curvature="0" class="st0" d="M630.2,173.7c-0.1,0-0.3,0-0.4,0.1c-0.9,0.2-1.5,1-1.5,1.9
			v1.9h-1.6c-1.3,0-2.3,1-2.3,2.3v21.9c0,1.3,1,2.3,2.3,2.3h12.7c1.3,0,2.3-1,2.3-2.3v-21.9c0-1.3-1-2.3-2.3-2.3H632v-1.9
			C632.1,174.7,631.3,173.8,630.2,173.7C630.2,173.7,630.2,173.7,630.2,173.7z"/>
		<path id="rect5766" class="st1" d="M629,190.2h0.7c0.4,0,0.8,0.3,0.8,0.8v0.7c0,0.4-0.3,0.8-0.8,0.8H629c-0.4,0-0.8-0.3-0.8-0.8
			V191C628.3,190.6,628.6,190.2,629,190.2z"/>
		<path id="rect5768" class="st1" d="M633,190.2h0.7c0.4,0,0.8,0.3,0.8,0.8v0.7c0,0.4-0.3,0.8-0.8,0.8H633c-0.4,0-0.8-0.3-0.8-0.8
			V191C632.2,190.6,632.5,190.2,633,190.2z"/>
		<path id="rect5770" class="st1" d="M636.9,190.2h0.7c0.4,0,0.8,0.3,0.8,0.8v0.7c0,0.4-0.3,0.8-0.8,0.8h-0.7
			c-0.4,0-0.8-0.3-0.8-0.8V191C636.1,190.6,636.5,190.2,636.9,190.2z"/>
		<path id="rect5772" class="st1" d="M629,194.1h0.7c0.4,0,0.8,0.3,0.8,0.8v0.7c0,0.4-0.3,0.8-0.8,0.8H629c-0.4,0-0.8-0.3-0.8-0.8
			v-0.7C628.3,194.4,628.6,194.1,629,194.1z"/>
		<path id="rect5774" class="st1" d="M633,194.1h0.7c0.4,0,0.8,0.3,0.8,0.8v0.7c0,0.4-0.3,0.8-0.8,0.8H633c-0.4,0-0.8-0.3-0.8-0.8
			v-0.7C632.2,194.4,632.5,194.1,633,194.1z"/>
		<path id="rect5776" class="st1" d="M636.9,194.1h0.7c0.4,0,0.8,0.3,0.8,0.8v0.7c0,0.4-0.3,0.8-0.8,0.8h-0.7
			c-0.4,0-0.8-0.3-0.8-0.8v-0.7C636.1,194.4,636.5,194.1,636.9,194.1z"/>
		<path id="rect5778" class="st1" d="M629,197.9h0.7c0.4,0,0.8,0.3,0.8,0.8v0.7c0,0.4-0.3,0.8-0.8,0.8H629c-0.4,0-0.8-0.3-0.8-0.8
			v-0.7C628.3,198.3,628.6,197.9,629,197.9z"/>
		<path id="rect5780" class="st1" d="M633,197.9h0.7c0.4,0,0.8,0.3,0.8,0.8v0.7c0,0.4-0.3,0.8-0.8,0.8H633c-0.4,0-0.8-0.3-0.8-0.8
			v-0.7C632.2,198.3,632.5,197.9,633,197.9z"/>
		<path id="rect5782" class="st1" d="M636.9,197.9h0.7c0.4,0,0.8,0.3,0.8,0.8v0.7c0,0.4-0.3,0.8-0.8,0.8h-0.7
			c-0.4,0-0.8-0.3-0.8-0.8v-0.7C636.1,198.3,636.5,197.9,636.9,197.9z"/>
		<path id="rect5784" class="st1" d="M629,180.6h8.5c0.4,0,0.8,0.3,0.8,0.8v6c0,0.4-0.3,0.8-0.8,0.8H629c-0.4,0-0.8-0.3-0.8-0.8v-6
			C628.3,181,628.6,180.6,629,180.6z"/>
	</g>
</g>
</svg>
